# xmcd CD database file
#
# Track frame offsets:
#	150
#	26290
#	57301
#	76321
#	104134
#	130719
#	159919
#	190844
#	206766
#	233689
#
# Disc length: 3465 seconds
#
# Revision: 0
# Processed by: cddbd v1.5.2PL0 Copyright (c) Steve Scherf et al.
# Submitted via: CDex 1.51
#
DISCID=7b0d870a
DTITLE=Iiro Rantala New Trio - Elmo
DYEAR=2008
DGENRE=Jazz
TTITLE0=Greetings From Assisi
TTITLE1=La Toalla
TTITLE2=Giant Steps
TTITLE3=Shit Catapult
TTITLE4=Aino
TTITLE5=Tilu 50
TTITLE6=Elmo
TTITLE7=Confirmation
TTITLE8=Three Gay Men
TTITLE9=Little Wing
EXTD=YEAR: 2008
EXTT0=
EXTT1=
EXTT2=
EXTT3=
EXTT4=
EXTT5=
EXTT6=
EXTT7=
EXTT8=
EXTT9=
PLAYORDER=
